<svg width="42" height="42" viewBox="0 0 42 42" fill="none" xmlns="http://www.w3.org/2000/svg">
<path d="M0 11.6667C0 5.22334 5.22334 0 11.6667 0H30.3333C36.7767 0 42 5.22334 42 11.6667V30.3333C42 36.7767 36.7767 42 30.3333 42H11.6667C5.22334 42 0 36.7767 0 30.3333V11.6667Z" fill="url(#paint0_linear_50_63)"/>
<path d="M24.8062 9.33333C26.8948 9.33335 28.5879 11.0265 28.5879 13.115V17.502H30.1006C32.1892 17.502 33.8823 19.1951 33.8823 21.2837V28.8471C33.8823 30.9357 32.1892 32.6288 30.1006 32.6288H14.9738V32.6667H11.9484C9.85981 32.6667 8.16669 30.9735 8.16667 28.885V26.4269C8.16667 24.3383 9.85979 22.6452 11.9484 22.6452H13.4611V13.115C13.4611 11.0265 15.1542 9.33333 17.2428 9.33333H24.8062ZM11.9484 24.1576C10.6952 24.1576 9.67941 25.1737 9.67941 26.4269V28.885C9.67943 30.1381 10.6952 31.1539 11.9484 31.1539H13.4611V24.1576H11.9484ZM17.2428 10.8461C15.9897 10.8461 14.9739 11.8619 14.9738 13.115V31.116H27.0752V13.115C27.0751 11.8619 26.0593 10.8461 24.8062 10.8461H17.2428ZM28.5879 31.116H30.1006C31.3538 31.116 32.3696 30.1002 32.3696 28.8471V21.2837C32.3696 20.0306 31.3538 19.0148 30.1006 19.0147H28.5879V31.116ZM23.6196 28.3934H18.3015V26.8806H23.6196V28.3934ZM23.6196 23.8551H18.3015V22.3424H23.6196V23.8551ZM23.6196 19.6197H18.3015V18.107H23.6196V19.6197ZM23.6196 15.0815H18.3015V13.5688H23.6196V15.0815Z" fill="white"/>
<defs>
<linearGradient id="paint0_linear_50_63" x1="42" y1="42" x2="0" y2="0" gradientUnits="userSpaceOnUse">
<stop stop-color="#00963A"/>
<stop offset="1" stop-color="#007C30"/>
</linearGradient>
</defs>
</svg>
