<svg width="42" height="42" viewBox="0 0 42 42" fill="none" xmlns="http://www.w3.org/2000/svg">
<path d="M0 11.6667C0 5.22334 5.22334 0 11.6667 0H30.3333C36.7767 0 42 5.22334 42 11.6667V30.3333C42 36.7767 36.7767 42 30.3333 42H11.6667C5.22334 42 0 36.7767 0 30.3333V11.6667Z" fill="black"/>
<path d="M24.806 9.33333C26.8946 9.33335 28.5877 11.0265 28.5877 13.115V17.502H30.1005C32.189 17.502 33.8822 19.1951 33.8822 21.2837V28.8471C33.8822 30.9357 32.189 32.6288 30.1005 32.6288H14.9737V32.6667H11.9482C9.85964 32.6667 8.16653 30.9735 8.1665 28.885V26.4269C8.1665 24.3383 9.85963 22.6452 11.9482 22.6452H13.4609V13.115C13.461 11.0265 15.1541 9.33333 17.2426 9.33333H24.806ZM11.9482 24.1576C10.6951 24.1576 9.67924 25.1737 9.67924 26.4269V28.885C9.67926 30.1381 10.6951 31.1539 11.9482 31.1539H13.4609V24.1576H11.9482ZM17.2426 10.8461C15.9895 10.8461 14.9737 11.8619 14.9737 13.115V31.116H27.075V13.115C27.075 11.8619 26.0592 10.8461 24.806 10.8461H17.2426ZM28.5877 31.116H30.1005C31.3536 31.116 32.3694 30.1002 32.3694 28.8471V21.2837C32.3694 20.0306 31.3536 19.0148 30.1005 19.0147H28.5877V31.116ZM23.6194 28.3934H18.3014V26.8806H23.6194V28.3934ZM23.6194 23.8551H18.3014V22.3424H23.6194V23.8551ZM23.6194 19.6197H18.3014V18.107H23.6194V19.6197ZM23.6194 15.0815H18.3014V13.5688H23.6194V15.0815Z" fill="white"/>
</svg>
